HIERARCHY
ROOT SimulationBone
{
	OFFSET 0.000000 0.000000 0.000000
	CHANNELS 6 Xposition Yposition Zposition Zrotation Yrotation Xrotation 
	JOINT Hips
	{
		OFFSET 0.000000 0.000000 0.000000
		CHANNELS 6 Xposition Yposition Zposition Zrotation Yrotation Xrotation 
		JOINT LeftUpLeg
		{
			OFFSET 0.103457 1.857818 10.548502
			CHANNELS 3 Zrotation Yrotation Xrotation
			JOINT LeftLeg
			{
				OFFSET 43.500000 -0.000011 -0.000004
				CHANNELS 3 Zrotation Yrotation Xrotation
				JOINT LeftFoot
				{
					OFFSET 42.372192 -0.000004 -0.000008
					CHANNELS 3 Zrotation Yrotation Xrotation
					JOINT LeftToe
					{
						OFFSET 17.300014 0.000006 0.000001
						CHANNELS 3 Zrotation Yrotation Xrotation
						End Site
						{
							OFFSET 0.000000 0.000000 0.000000
						}
					}
				}
			}
		}
		JOINT RightUpLeg
		{
			OFFSET 0.103457 1.857817 -10.548505
			CHANNELS 3 Zrotation Yrotation Xrotation
			JOINT RightLeg
			{
				OFFSET 43.500046 -0.000004 0.000011
				CHANNELS 3 Zrotation Yrotation Xrotation
				JOINT RightFoot
				{
					OFFSET 42.372257 0.000000 0.000015
					CHANNELS 3 Zrotation Yrotation Xrotation
					JOINT RightToe
					{
						OFFSET 17.300003 -0.000000 0.000002
						CHANNELS 3 Zrotation Yrotation Xrotation
						End Site
						{
							OFFSET 0.000000 0.000000 0.000000
						}
					}
				}
			}
		}
		JOINT Spine
		{
			OFFSET 6.901961 -2.603721 -0.000001
			CHANNELS 3 Zrotation Yrotation Xrotation
			JOINT Spine1
			{
				OFFSET 12.588108 0.000002 -0.000001
				CHANNELS 3 Zrotation Yrotation Xrotation
				JOINT Spine2
				{
					OFFSET 12.343199 -0.000020 0.000006
					CHANNELS 3 Zrotation Yrotation Xrotation
					JOINT Neck
					{
						OFFSET 25.832905 0.000017 0.000000
						CHANNELS 3 Zrotation Yrotation Xrotation
						JOINT Head
						{
							OFFSET 11.766604 -0.000006 0.000004
							CHANNELS 3 Zrotation Yrotation Xrotation
							End Site
							{
								OFFSET 0.000000 0.000000 0.000000
							}
						}
					}
					JOINT LeftShoulder
					{
						OFFSET 19.745903 -1.480350 6.000100
						CHANNELS 3 Zrotation Yrotation Xrotation
						JOINT LeftArm
						{
							OFFSET 11.284130 -0.000016 -0.000016
							CHANNELS 3 Zrotation Yrotation Xrotation
							JOINT LeftForeArm
							{
								OFFSET 33.000046 0.000004 0.000031
								CHANNELS 3 Zrotation Yrotation Xrotation
								JOINT LeftHand
								{
									OFFSET 25.199999 0.000027 0.000001
									CHANNELS 3 Zrotation Yrotation Xrotation
									End Site
									{
										OFFSET 0.000000 0.000000 0.000000
									}
								}
							}
						}
					}
					JOINT RightShoulder
					{
						OFFSET 19.746094 -1.480375 -6.000080
						CHANNELS 3 Zrotation Yrotation Xrotation
						JOINT RightArm
						{
							OFFSET 11.284131 -0.000016 -0.000017
							CHANNELS 3 Zrotation Yrotation Xrotation
							JOINT RightForeArm
							{
								OFFSET 33.000095 0.000009 0.000020
								CHANNELS 3 Zrotation Yrotation Xrotation
								JOINT RightHand
								{
									OFFSET 25.199789 0.000132 0.000423
									CHANNELS 3 Zrotation Yrotation Xrotation
									End Site
									{
										OFFSET 0.000000 0.000000 0.000000
									}
								}
							}
						}
					}
				}
			}
		}
	}
}
MOTION
Frames: 9
Frame Time: 0.016667
-47.679354 0.000000 -326.526265 0.000000 261.255457 0.000000 1.775775 89.107811 0.868693 97.274840 3.649365 177.707022 170.263475 -11.551194 178.790611 -50.764212 -0.775794 1.219227 72.598797 -3.250845 -7.484167 21.454550 0.003082 0.000002 176.496910 3.798989 -178.249810 -26.319699 5.216189 2.825345 82.833992 -1.377177 3.312137 21.454562 -0.003109 -0.000018 8.097131 1.313616 -0.125944 6.180948 2.631983 -0.181878 5.862490 2.630976 -0.197776 13.343172 -4.469460 -0.428653 0.554220 14.333608 -3.559431 160.406407 -88.112042 17.947933 -4.562148 53.861664 24.959735 -53.909436 -6.869902 1.332628 4.012221 -5.117596 36.638633 -146.567960 80.949974 35.431889 8.390798 -60.756190 -21.634405 -28.870208 13.555259 -1.141715 10.107678 3.658564 -28.299062 
-48.032457 0.000000 -326.124909 0.000000 261.015864 0.000000 1.781995 89.107045 0.822841 97.240197 3.726754 178.683464 167.310047 -12.401521 178.652561 -55.435377 -0.479839 1.900468 70.422201 -4.281961 -8.519226 21.454553 0.003085 0.000001 177.333019 3.415900 -178.612492 -25.364878 5.404795 3.511739 82.918245 -1.825728 3.445942 21.454559 -0.003100 -0.000017 8.105178 1.357913 -0.143465 6.196689 2.721447 -0.214370 5.878213 2.720244 -0.230794 13.168167 -4.166847 -0.624223 0.557374 14.301544 -3.742893 151.560026 -87.912447 26.826612 -5.920456 54.666834 24.465447 -52.427499 -7.285987 1.312153 4.126194 -4.753770 37.269078 -147.036738 80.856243 34.960197 6.192025 -61.015809 -20.833484 -30.428039 13.708042 -1.180986 9.647187 4.900281 -27.239993 
-48.367989 0.000000 -325.683564 0.000000 260.798264 0.000000 1.791627 89.129570 0.784840 97.286466 3.738988 179.447080 164.612176 -13.036003 178.476477 -59.552200 -0.315061 2.165146 68.160096 -4.412379 -7.777312 21.454553 0.003089 0.000001 178.328958 3.139394 -179.148076 -24.223102 5.668878 4.177902 82.916508 -2.275614 3.512460 21.454557 -0.003105 -0.000017 8.137341 1.391457 -0.119571 6.261664 2.787237 -0.164021 5.943168 2.786334 -0.180846 12.948673 -4.001051 -0.826985 0.503985 14.328647 -3.961528 144.395837 -87.705406 34.021225 -7.177311 55.546631 23.895539 -51.216900 -7.684561 1.299599 4.047033 -4.145869 38.641043 -147.677196 80.826252 34.312288 3.948883 -61.023121 -19.831581 -32.118188 13.787888 -1.220685 9.199834 5.206544 -25.614722 
-48.686800 0.000000 -325.204415 0.000000 260.604217 0.000000 1.798777 89.159696 0.745176 97.384346 3.699702 -179.994694 162.197521 -13.521711 178.264037 -63.049791 -0.300266 2.101191 66.458116 -3.967852 -6.372368 21.454550 0.003093 0.000001 179.417587 2.962874 -179.806180 -22.974061 5.972279 4.805319 82.851297 -2.708158 3.529296 21.454556 -0.003116 -0.000018 8.188354 1.414595 -0.065655 6.365109 2.830566 -0.053701 6.046596 2.830324 -0.070800 12.717598 -3.949025 -1.015639 0.403866 14.402561 -4.187965 140.057191 -87.502133 38.384275 -8.309864 56.456604 23.289476 -50.283077 -8.096624 1.297605 3.811000 -3.386436 40.716743 -148.654880 80.875903 33.320016 1.723531 -60.828358 -18.645199 -33.930968 13.813037 -1.261396 8.740606 4.765817 -23.733646 
-48.989745 0.000000 -324.689647 0.000000 260.435155 0.000000 1.797428 89.181732 0.694413 97.505631 3.623987 -179.634314 160.093118 -13.923711 178.024646 -65.856485 -0.433747 1.790679 65.967086 -3.380440 -5.377275 21.454551 0.003095 0.000002 -179.469040 2.877188 179.464190 -21.698743 6.281685 5.373370 82.744858 -3.104866 3.513644 21.454557 -0.003122 -0.000018 8.252923 1.427667 0.006876 6.496149 2.852618 0.093652 6.177626 2.853267 0.076406 12.507701 -3.987340 -1.168845 0.266934 14.511054 -4.394873 139.352659 -87.324142 39.103037 -9.287129 57.353663 22.694991 -49.631487 -8.553028 1.307931 3.453255 -2.563415 43.460192 -150.160394 81.018536 31.790179 -0.429895 -60.482389 -17.281609 -35.857051 13.801615 -1.304481 8.245298 3.762238 -21.909524 
-49.277674 0.000000 -324.141446 0.000000 260.292390 0.000000 1.781777 89.189154 0.627767 97.622570 3.512396 -179.457138 158.317970 -14.275768 177.758133 -67.908912 -0.700113 1.302184 67.013225 -2.987714 -5.472849 21.454555 0.003094 0.000003 -178.387117 2.881360 178.727871 -20.458826 6.563105 5.856921 82.616214 -3.445925 3.479616 21.454560 -0.003118 -0.000017 8.325007 1.427829 0.087757 6.642393 2.848198 0.257162 6.323873 2.849843 0.239935 12.346769 -4.089254 -1.273624 0.106260 14.641651 -4.562678 142.554621 -87.175888 35.902322 -10.077630 58.208335 22.142036 -49.254819 -9.066162 1.330655 3.006198 -1.759995 46.799657 -152.335632 81.253381 29.579834 -2.462513 -60.043895 -15.756187 -37.888745 13.772855 -1.351817 7.707615 2.387359 -20.424789 
-49.551439 0.000000 -323.561997 0.000000 260.177106 0.000000 1.747260 89.212097 0.558885 97.706296 3.304140 -179.420905 156.860690 -14.494602 177.402921 -69.194071 -1.086306 0.672667 68.758195 -2.572759 -5.913309 21.454560 0.003093 0.000004 -177.345124 3.016702 178.105625 -19.235237 6.770897 6.220054 82.472416 -3.706117 3.430390 21.454562 -0.003109 -0.000016 8.395625 1.399453 0.171307 6.785557 2.786400 0.424276 6.467060 2.789059 0.407422 12.243564 -4.215960 -1.349839 -0.053133 14.780237 -4.702950 148.253397 -87.036191 30.194370 -10.679454 59.040980 21.558212 -49.094152 -9.575222 1.359822 2.505474 -1.051792 50.509904 -154.957578 81.540320 26.917102 -4.319904 -59.602496 -14.146894 -40.023668 13.750956 -1.404740 7.139833 0.878023 -19.443725 
-49.811894 0.000000 -322.953484 0.000000 260.090369 0.000000 1.690594 89.271549 0.500416 97.731511 2.965486 -179.474332 155.684122 -14.514171 176.910153 -69.730156 -1.560858 -0.073107 70.253965 -1.910844 -5.877565 21.454560 0.003096 0.000003 -176.369253 3.295775 177.716348 -18.054122 6.869580 6.427423 82.343620 -3.861210 3.370797 21.454560 -0.003104 -0.000016 8.456153 1.333357 0.254559 6.908109 2.649112 0.588196 6.589659 2.652754 0.572179 12.196673 -4.332570 -1.423476 -0.185852 14.913527 -4.833782 154.873456 -86.885461 23.558655 -11.094790 59.887232 20.870612 -49.076662 -10.026700 1.389450 1.979094 -0.507939 54.298354 -157.669755 81.839872 24.164712 -5.963519 -59.244923 -12.530043 -42.259640 13.755582 -1.465219 6.573591 -0.535620 -19.073184 
-50.059890 0.000000 -322.318093 0.000000 260.033134 0.000000 1.611842 89.315247 0.442645 97.688428 2.632939 -179.557979 154.677433 -14.445205 176.357602 -69.612891 -2.030568 -0.916671 71.227787 -1.153906 -5.667478 21.454557 0.003099 0.000000 -175.603071 3.584498 177.608373 -17.201056 6.874760 6.461360 82.364485 -3.896178 3.323576 21.454558 -0.003104 -0.000017 8.502538 1.258826 0.340943 7.002143 2.494711 0.757396 6.683746 2.499367 0.742319 12.183034 -4.431344 -1.511473 -0.277054 15.033176 -4.968766 161.071754 -86.725153 17.342334 -11.285224 60.798640 20.132487 -49.126302 -10.469690 1.420692 1.466383 -0.166626 57.740629 -160.136022 82.131733 21.663487 -7.358900 -59.004199 -10.978106 -44.588253 13.783662 -1.533233 6.049690 -1.687262 -19.294933 
